<svg width="5" height="11" viewBox="0 0 5 11" fill="none" xmlns="http://www.w3.org/2000/svg">
<path d="M0.671519 10.5C0.620006 10.5003 0.568941 10.4898 0.521252 10.4691C0.473562 10.4483 0.430187 10.4178 0.393613 10.3792C0.356926 10.3405 0.327807 10.2944 0.307935 10.2436C0.288063 10.1928 0.277832 10.1384 0.277832 10.0834C0.277832 10.0284 0.288063 9.97395 0.307935 9.92318C0.327807 9.87242 0.356926 9.82634 0.393613 9.78761L3.5915 6.38403C3.81139 6.14969 3.93491 5.83204 3.93491 5.50085C3.93491 5.16965 3.81139 4.852 3.5915 4.61767L0.393613 1.21408C0.319907 1.13564 0.2785 1.02924 0.2785 0.9183C0.2785 0.80736 0.319907 0.700964 0.393613 0.622517C0.467318 0.544071 0.567284 0.5 0.671519 0.5C0.775754 0.5 0.87572 0.544071 0.949426 0.622517L4.14731 4.0261C4.32957 4.21959 4.47417 4.44945 4.57283 4.70251C4.67149 4.95557 4.72228 5.22686 4.72228 5.50085C4.72228 5.77483 4.67149 6.04612 4.57283 6.29919C4.47417 6.55225 4.32957 6.78211 4.14731 6.9756L0.949426 10.3792C0.912852 10.4178 0.869476 10.4483 0.821787 10.4691C0.774098 10.4898 0.723032 10.5003 0.671519 10.5Z" fill="#7F3614"/>
</svg>
