<svg width="20" height="20" viewBox="0 0 20 20" fill="none" xmlns="http://www.w3.org/2000/svg">
<path d="M1.66666 14.5829H3.74995C4.67041 14.5829 5.41661 15.3291 5.41661 16.2496V18.3329C5.41661 19.2534 4.67041 19.9996 3.74995 19.9996H1.66666C0.746202 19.9996 0 19.2534 0 18.3329V16.2496C0 15.3291 0.746202 14.5829 1.66666 14.5829Z" fill="#7F3614"/>
<path d="M19.2651 14.8679C18.9902 14.6817 18.6656 14.5824 18.3335 14.5829H16.2502C15.3297 14.5829 14.5835 15.3291 14.5835 16.2496V18.3329C14.5835 19.2534 15.3297 19.9996 16.2502 19.9996H18.3335C19.2539 19.9996 20.0001 19.2534 20.0001 18.3329V16.2496C20 15.6955 19.7246 15.1777 19.2651 14.8679Z" fill="#7F3614"/>
<path d="M1.66666 7.29181H3.74995C4.67041 7.29181 5.41661 8.03801 5.41661 8.95847V11.0418C5.41661 11.9622 4.67041 12.7084 3.74995 12.7084H1.66666C0.746202 12.7084 0 11.9622 0 11.0418V8.95847C0 8.03797 0.746202 7.29181 1.66666 7.29181Z" fill="#7F3614"/>
<path d="M19.2651 7.57681C18.9902 7.39056 18.6656 7.29126 18.3335 7.29181H16.2502C15.3297 7.29181 14.5835 8.03801 14.5835 8.95847V11.0418C14.5835 11.9622 15.3297 12.7084 16.2502 12.7084H18.3335C19.2539 12.7084 20.0001 11.9622 20.0001 11.0418V8.95847C20 8.40434 19.7246 7.88653 19.2651 7.57681Z" fill="#7F3614"/>
<path d="M1.66666 0H3.74995C4.67041 0 5.41661 0.746202 5.41661 1.66666V3.74995C5.41661 4.67041 4.67041 5.41661 3.74995 5.41661H1.66666C0.746202 5.41661 0 4.67041 0 3.74995V1.66666C0 0.746202 0.746202 0 1.66666 0Z" fill="#7F3614"/>
<path d="M11.9726 14.8679C11.6977 14.6817 11.3731 14.5824 11.041 14.5829H8.95767C8.03722 14.5829 7.29102 15.3291 7.29102 16.2496V18.3329C7.29102 19.2534 8.03722 19.9996 8.95767 19.9996H11.041C11.9614 19.9996 12.7076 19.2534 12.7076 18.3329V16.2496C12.7076 15.6955 12.4321 15.1777 11.9726 14.8679Z" fill="#7F3614"/>
<path d="M11.9726 7.57681C11.6977 7.39056 11.3731 7.29126 11.041 7.29181H8.95767C8.03722 7.29181 7.29102 8.03801 7.29102 8.95847V11.0418C7.29102 11.9622 8.03722 12.7084 8.95767 12.7084H11.041C11.9614 12.7084 12.7076 11.9622 12.7076 11.0418V8.95847C12.7076 8.40434 12.4321 7.88653 11.9726 7.57681Z" fill="#7F3614"/>
<path d="M11.9726 0.284999C11.6977 0.098751 11.3731 -0.000544621 11.041 2.24679e-06H8.95767C8.03722 2.24679e-06 7.29102 0.746204 7.29102 1.66666V3.74996C7.29102 4.67041 8.03722 5.41661 8.95767 5.41661H11.041C11.9614 5.41661 12.7076 4.67041 12.7076 3.74996V1.66666C12.7076 1.11257 12.4321 0.594721 11.9726 0.284999Z" fill="#7F3614"/>
<path d="M19.7151 0.734991C19.4054 0.275543 18.8875 7.8124e-05 18.3335 0H16.2502C15.3297 0 14.5835 0.746202 14.5835 1.66666V3.74995C14.5835 4.67041 15.3297 5.41661 16.2502 5.41661H18.3335C19.2539 5.41661 20.0001 4.67041 20.0001 3.74995V1.66666C20.0007 1.33455 19.9014 1.00995 19.7151 0.734991Z" fill="#7F3614"/>
</svg>
