<svg width="23" height="20" viewBox="0 0 23 20" fill="none" xmlns="http://www.w3.org/2000/svg">
<path d="M16.2017 0C15.1594 0.016605 14.1399 0.314612 13.2461 0.863927C12.3523 1.41324 11.6159 2.19441 11.1111 3.12855C10.6064 2.19441 9.86988 1.41324 8.97608 0.863927C8.08228 0.314612 7.06279 0.016605 6.02057 0C4.35915 0.0739388 2.79382 0.818405 1.66657 2.07075C0.53932 3.3231 -0.058226 4.98153 0.0044807 6.68372C0.0044807 10.9945 4.43418 15.7025 8.14934 18.8946C8.97884 19.6086 10.0276 20 11.1111 20C12.1946 20 13.2434 19.6086 14.0729 18.8946C17.788 15.7025 22.2177 10.9945 22.2177 6.68372C22.2804 4.98153 21.6829 3.3231 20.5556 2.07075C19.4284 0.818405 17.8631 0.0739388 16.2017 0Z" fill="#7F3614"/>
</svg>
