<svg width="18" height="17" viewBox="0 0 18 17" fill="none" xmlns="http://www.w3.org/2000/svg">
<path d="M2.29168 12.3958H4.0625C4.8449 12.3958 5.47918 13.0301 5.47918 13.8125V15.5833C5.47918 16.3658 4.8449 17 4.0625 17H2.29168C1.50928 17 0.875 16.3658 0.875 15.5833V13.8125C0.875 13.0301 1.50928 12.3958 2.29168 12.3958Z" fill="white"/>
<path d="M17.2502 12.6381C17.0165 12.4798 16.7405 12.3954 16.4583 12.3958H14.6874C13.905 12.3958 13.2708 13.0301 13.2708 13.8125V15.5833C13.2708 16.3658 13.905 17 14.6874 17H16.4583C17.2407 17 17.8749 16.3658 17.8749 15.5833V13.8125C17.8749 13.3415 17.6407 12.9014 17.2502 12.6381Z" fill="white"/>
<path d="M2.29168 6.19792H4.0625C4.8449 6.19792 5.47918 6.8322 5.47918 7.6146V9.38542C5.47918 10.1678 4.8449 10.8021 4.0625 10.8021H2.29168C1.50928 10.8021 0.875 10.1678 0.875 9.38542V7.6146C0.875 6.83217 1.50928 6.19792 2.29168 6.19792Z" fill="white"/>
<path d="M17.2502 6.44017C17.0165 6.28186 16.7405 6.19746 16.4583 6.19792H14.6874C13.905 6.19792 13.2708 6.8322 13.2708 7.6146V9.38542C13.2708 10.1678 13.905 10.8021 14.6874 10.8021H16.4583C17.2407 10.8021 17.8749 10.1678 17.8749 9.38542V7.6146C17.8749 7.14358 17.6407 6.70344 17.2502 6.44017Z" fill="white"/>
<path d="M2.29168 0H4.0625C4.8449 0 5.47918 0.634279 5.47918 1.41668V3.1875C5.47918 3.9699 4.8449 4.60418 4.0625 4.60418H2.29168C1.50928 4.60418 0.875 3.9699 0.875 3.1875V1.41668C0.875 0.634279 1.50928 0 2.29168 0Z" fill="white"/>
<path d="M11.0523 12.6381C10.8186 12.4798 10.5427 12.3954 10.2604 12.3958H8.48955C7.70716 12.3958 7.07288 13.0301 7.07288 13.8125V15.5833C7.07288 16.3657 7.70716 17 8.48955 17H10.2604C11.0428 17 11.6771 16.3658 11.6771 15.5833V13.8125C11.677 13.3415 11.4428 12.9014 11.0523 12.6381Z" fill="white"/>
<path d="M11.0523 6.44017C10.8186 6.28186 10.5427 6.19746 10.2604 6.19792H8.48955C7.70716 6.19792 7.07288 6.8322 7.07288 7.6146V9.38542C7.07288 10.1678 7.70716 10.8021 8.48955 10.8021H10.2604C11.0428 10.8021 11.6771 10.1678 11.6771 9.38542V7.6146C11.677 7.14358 11.4428 6.70344 11.0523 6.44017Z" fill="white"/>
<path d="M11.0523 0.242252C10.8186 0.0839394 10.5427 -0.000462934 10.2604 1.90979e-06H8.48955C7.70716 1.90979e-06 7.07288 0.634281 7.07288 1.41668V3.1875C7.07288 3.9699 7.70716 4.60418 8.48955 4.60418H10.2604C11.0428 4.60418 11.6771 3.9699 11.6771 3.1875V1.41668C11.677 0.945693 11.4428 0.505519 11.0523 0.242252Z" fill="white"/>
<path d="M17.6327 0.62475C17.3694 0.234215 16.9292 6.64063e-05 16.4583 0H14.6874C13.905 0 13.2708 0.634279 13.2708 1.41668V3.1875C13.2708 3.9699 13.905 4.60418 14.6874 4.60418H16.4583C17.2407 4.60418 17.8749 3.9699 17.8749 3.1875V1.41668C17.8754 1.13438 17.791 0.858467 17.6327 0.62475Z" fill="white"/>
</svg>
