<svg width="16" height="19" viewBox="0 0 16 19" fill="none" xmlns="http://www.w3.org/2000/svg">
<path d="M7.54126 4.5015C6.94792 4.5015 6.3679 4.67744 5.87455 5.00709C5.3812 5.33673 4.99669 5.80527 4.76962 6.35344C4.54256 6.90162 4.48315 7.50482 4.59891 8.08677C4.71466 8.66871 5.00038 9.20326 5.41994 9.62282C5.8395 10.0424 6.37405 10.3281 6.95599 10.4439C7.53793 10.5596 8.14114 10.5002 8.68931 10.2731C9.23749 10.0461 9.70603 9.66155 10.0357 9.16821C10.3653 8.67486 10.5413 8.09484 10.5413 7.5015C10.5413 6.70585 10.2252 5.94278 9.66258 5.38017C9.09997 4.81757 8.33691 4.5015 7.54126 4.5015ZM7.54126 9.0015C7.24459 9.0015 6.95458 8.91352 6.70791 8.7487C6.46123 8.58388 6.26897 8.34961 6.15544 8.07552C6.04191 7.80143 6.01221 7.49983 6.07008 7.20886C6.12796 6.91789 6.27082 6.65061 6.4806 6.44084C6.69038 6.23106 6.95766 6.0882 7.24863 6.03032C7.5396 5.97244 7.8412 6.00214 8.11529 6.11568C8.38938 6.22921 8.62365 6.42147 8.78847 6.66814C8.95329 6.91481 9.04126 7.20482 9.04126 7.5015C9.04126 7.89932 8.88323 8.28085 8.60192 8.56216C8.32062 8.84346 7.93909 9.0015 7.54126 9.0015Z" fill="#7E472D"/>
<path d="M7.54125 18.0015C6.90971 18.0047 6.28658 17.8566 5.72405 17.5695C5.16152 17.2825 4.67595 16.8648 4.308 16.3515C1.44975 12.4088 0 9.44476 0 7.54125C0 5.54119 0.794522 3.62304 2.20878 2.20878C3.62304 0.794523 5.54119 0 7.54125 0C9.54132 0 11.4595 0.794523 12.8737 2.20878C14.288 3.62304 15.0825 5.54119 15.0825 7.54125C15.0825 9.44476 13.6328 12.4088 10.7745 16.3515C10.4066 16.8648 9.92099 17.2825 9.35845 17.5695C8.79592 17.8566 8.17279 18.0047 7.54125 18.0015V18.0015ZM7.54125 1.63725C5.97556 1.63904 4.47451 2.2618 3.3674 3.36891C2.2603 4.47602 1.63754 5.97707 1.63575 7.54275C1.63575 9.05026 3.0555 11.838 5.6325 15.3923C5.85127 15.6936 6.13828 15.9388 6.47004 16.108C6.80179 16.2771 7.16888 16.3652 7.54125 16.3652C7.91363 16.3652 8.28071 16.2771 8.61247 16.108C8.94423 15.9388 9.23123 15.6936 9.45 15.3923C12.027 11.838 13.4468 9.05026 13.4468 7.54275C13.445 5.97707 12.8222 4.47602 11.7151 3.36891C10.608 2.2618 9.10694 1.63904 7.54125 1.63725V1.63725Z" fill="#7F3614"/>
</svg>
