<svg width="26" height="20" viewBox="0 0 26 20" fill="none" xmlns="http://www.w3.org/2000/svg">
<path d="M20.5833 0.25H5.41667C3.9806 0.25172 2.60385 0.822955 1.5884 1.8384C0.572955 2.85385 0.00172018 4.2306 0 5.66667L0 14.3333C0.00172018 15.7694 0.572955 17.1461 1.5884 18.1616C2.60385 19.177 3.9806 19.7483 5.41667 19.75H20.5833C22.0194 19.7483 23.3961 19.177 24.4116 18.1616C25.427 17.1461 25.9983 15.7694 26 14.3333V5.66667C25.9983 4.2306 25.427 2.85385 24.4116 1.8384C23.3961 0.822955 22.0194 0.25172 20.5833 0.25ZM5.41667 2.41667H20.5833C21.4453 2.41667 22.2719 2.75908 22.8814 3.36857C23.4909 3.97806 23.8333 4.80471 23.8333 5.66667H2.16667C2.16667 4.80471 2.50908 3.97806 3.11857 3.36857C3.72806 2.75908 4.55471 2.41667 5.41667 2.41667ZM20.5833 17.5833H5.41667C4.55471 17.5833 3.72806 17.2409 3.11857 16.6314C2.50908 16.0219 2.16667 15.1953 2.16667 14.3333V7.83333H23.8333V14.3333C23.8333 15.1953 23.4909 16.0219 22.8814 16.6314C22.2719 17.2409 21.4453 17.5833 20.5833 17.5833Z" fill="#7F3614"/>
</svg>
