<svg width="24" height="26" viewBox="0 0 24 26" fill="none" xmlns="http://www.w3.org/2000/svg">
<path d="M19.6354 7.58333H17.9291C18.4842 7.0434 18.9248 6.37529 19.2197 5.6264C19.5146 4.87751 19.6565 4.06619 19.6354 3.25C19.6354 2.96268 19.532 2.68713 19.3479 2.48397C19.1637 2.2808 18.914 2.16667 18.6536 2.16667C18.3933 2.16667 18.1435 2.2808 17.9594 2.48397C17.7753 2.68713 17.6719 2.96268 17.6719 3.25C17.6719 6.0905 15.3441 7.07417 13.574 7.41108C14.2273 6.13281 14.6206 4.7129 14.7266 3.25C14.7266 2.38805 14.4163 1.5614 13.8639 0.951903C13.3115 0.34241 12.5624 0 11.7812 0C11.0001 0 10.251 0.34241 9.6986 0.951903C9.14625 1.5614 8.83594 2.38805 8.83594 3.25C8.94188 4.7129 9.33518 6.13281 9.98854 7.41108C8.2184 7.07417 5.89062 6.0905 5.89062 3.25C5.89062 2.96268 5.78719 2.68713 5.60307 2.48397C5.41895 2.2808 5.16924 2.16667 4.90885 2.16667C4.64847 2.16667 4.39876 2.2808 4.21464 2.48397C4.03052 2.68713 3.92708 2.96268 3.92708 3.25C3.90599 4.06619 4.04791 4.87751 4.3428 5.6264C4.63769 6.37529 5.07831 7.0434 5.6334 7.58333H3.92708C2.88556 7.58333 1.88669 8.03988 1.15022 8.85254C0.413745 9.6652 0 10.7674 0 11.9167L0 13C0 13.5746 0.206873 14.1257 0.575108 14.5321C0.943344 14.9384 1.44278 15.1667 1.96354 15.1667V20.5833C1.9651 22.0194 2.48278 23.3961 3.40303 24.4116C4.32328 25.427 5.57097 25.9983 6.8724 26H16.6901C17.9915 25.9983 19.2392 25.427 20.1595 24.4116C21.0797 23.3961 21.5974 22.0194 21.599 20.5833V15.1667C22.1197 15.1667 22.6192 14.9384 22.9874 14.5321C23.3556 14.1257 23.5625 13.5746 23.5625 13V11.9167C23.5625 10.7674 23.1488 9.6652 22.4123 8.85254C21.6758 8.03988 20.6769 7.58333 19.6354 7.58333ZM11.7812 2.16667C12.0416 2.16667 12.2913 2.2808 12.4755 2.48397C12.6596 2.68713 12.763 2.96268 12.763 3.25C12.6445 4.4014 12.3102 5.51298 11.7812 6.51408C11.2523 5.51298 10.918 4.4014 10.7995 3.25C10.7995 2.96268 10.9029 2.68713 11.087 2.48397C11.2712 2.2808 11.5209 2.16667 11.7812 2.16667ZM1.96354 11.9167C1.96354 11.342 2.17041 10.7909 2.53865 10.3846C2.90689 9.97827 3.40632 9.75 3.92708 9.75H10.7995V13H1.96354V11.9167ZM3.92708 20.5833V15.1667H10.7995V23.8333H6.8724C6.09125 23.8333 5.3421 23.4909 4.78975 22.8814C4.23739 22.2719 3.92708 21.4453 3.92708 20.5833ZM19.6354 20.5833C19.6354 21.4453 19.3251 22.2719 18.7728 22.8814C18.2204 23.4909 17.4712 23.8333 16.6901 23.8333H12.763V15.1667H19.6354V20.5833ZM12.763 13V9.75H19.6354C20.1562 9.75 20.6556 9.97827 21.0238 10.3846C21.3921 10.7909 21.599 11.342 21.599 11.9167V13H12.763Z" fill="#7F3614"/>
</svg>
