<svg width="79" height="37" viewBox="0 0 79 37" fill="none" xmlns="http://www.w3.org/2000/svg">
<g clip-path="url(#clip0_302_2918)">
<path d="M72.381 15.2933C72.3295 15.2942 72.2788 15.3052 72.2316 15.3257C72.1845 15.3463 72.142 15.3759 72.1065 15.4129C72.0709 15.45 72.0432 15.4936 72.0248 15.5414C72.0064 15.5892 71.9978 15.6401 71.9993 15.6913C71.9993 15.9265 72.1452 16.0893 72.364 16.0893C72.4168 16.0902 72.4692 16.0805 72.5181 16.0608C72.5671 16.0411 72.6115 16.0118 72.6488 15.9747C72.6861 15.9375 72.7155 15.8933 72.7352 15.8446C72.7549 15.7959 72.7645 15.7438 72.7634 15.6913C72.7634 15.4552 72.5998 15.2933 72.3818 15.2933H72.381ZM74.9107 13.6466C74.546 13.6466 74.2738 13.8093 74.1101 14.0808H74.0915L74.0737 13.7014H73.709C73.7277 13.9181 73.7277 14.1533 73.7277 14.4434V16.8852H74.1279V15.6542C74.2551 15.8717 74.5282 16.0167 74.8199 16.0167C75.3474 16.0167 75.8563 15.6188 75.8563 14.8043C75.8749 14.0994 75.4746 13.6466 74.9107 13.6466ZM74.7835 15.6727C74.6428 15.6722 74.5061 15.626 74.3943 15.541C74.2826 15.4561 74.2018 15.3371 74.1644 15.2022C74.1466 15.1483 74.1466 15.0943 74.1466 15.0395V14.6415C74.1466 14.5876 74.1644 14.5336 74.1831 14.4788C74.215 14.3381 74.2933 14.2119 74.4054 14.1203C74.5175 14.0287 74.6571 13.9768 74.8021 13.9729C75.238 13.9729 75.4746 14.3523 75.4746 14.8043C75.456 15.311 75.2202 15.6727 74.7835 15.6727ZM77.7491 13.6828L77.2937 15.0032C77.2394 15.166 77.1852 15.3473 77.1487 15.4737H77.13C77.0873 15.3214 77.0389 15.1706 76.985 15.0218L76.4931 13.7014H76.0386L76.8756 15.7815C76.8934 15.8355 76.9121 15.8717 76.9121 15.8903C76.9121 15.908 76.8934 15.9442 76.8756 15.9805C76.7849 16.1972 76.639 16.3422 76.5296 16.4324C76.4024 16.5412 76.2752 16.5952 76.1658 16.6314L76.2752 16.9754C76.3846 16.9577 76.5661 16.8852 76.784 16.7225C77.0579 16.4695 77.2572 16.0893 77.5668 15.311L78.1859 13.7005H77.7491V13.6837V13.6828ZM2.09479 26.3819C2.20504 24.935 3.42368 21.9325 5.67949 17.4636C6.55298 17.5724 7.40781 17.6087 8.24483 17.5724C9.79167 17.5184 11.3385 17.0665 12.848 16.2149C14.5772 15.2385 15.8145 14.0083 16.5235 12.5074C16.833 11.8742 16.9967 11.2596 17.0331 10.6803C17.1425 8.83458 16.1783 7.6769 14.1218 7.13474C12.3748 6.68195 10.538 6.4467 8.60949 6.39274C5.87963 6.33793 3.49576 6.64569 1.40363 7.36914C1.13056 7.47875 0.858337 7.6769 0.566608 7.96611C0.221453 8.31012 0.039123 8.61788 0.00265694 8.90709C-0.0151521 9.05212 0.05778 9.12463 0.184987 9.14234C0.257919 9.14234 0.366469 9.12463 0.494524 9.08837C3.58735 7.87588 6.66237 7.31518 9.73739 7.35143C11.1562 7.36914 12.4299 7.49646 13.54 7.74941C15.1412 8.11197 15.9052 9.01586 15.8145 10.4813C15.7903 10.8376 15.7231 11.1898 15.6144 11.5302C15.0682 13.0496 13.8674 14.3523 12.0119 15.4375C10.3921 16.3422 8.80878 16.8304 7.26279 16.8667C6.84386 16.8667 6.44358 16.849 6.02464 16.7764C7.44427 14.0083 8.89952 11.5302 10.3734 9.32278C10.4099 9.23256 10.4464 9.14233 10.4464 9.08837C10.465 8.9248 10.3378 8.85229 10.0647 8.85229C9.39139 8.85229 8.90037 9.08838 8.59083 9.57657C8.21697 10.204 7.85311 10.8373 7.4994 11.4762C6.6269 13.1532 5.7897 14.8481 4.98833 16.5597C3.86042 16.1609 3.29647 15.7629 3.33294 15.365C3.35075 15.0758 3.60516 14.8768 4.07922 14.7503C4.55158 14.6238 4.78819 14.4788 4.806 14.3161C4.82466 14.1533 4.71526 14.0631 4.51512 14.0631C4.09703 14.0631 3.69675 14.1896 3.27782 14.4425C2.78595 14.7503 2.51373 15.1306 2.47726 15.6002C2.42298 16.3422 3.15061 16.9029 4.67879 17.2646C2.62312 21.7512 1.51303 24.8625 1.36717 26.4721C1.31289 27.1062 1.4401 27.4317 1.74879 27.4131C1.96758 27.4131 2.07698 27.2327 2.11345 26.9072V26.6543C2.09564 26.5446 2.09564 26.4544 2.09564 26.3819H2.09479ZM19.7444 14.768C19.7622 14.6053 19.5985 14.5328 19.2711 14.5513C18.8522 14.5876 18.6165 14.7503 18.5613 15.0758C16.4327 19.4535 15.0674 21.7335 14.5043 21.7697C14.1769 21.8051 14.0311 21.4797 14.0853 20.7917C14.1218 20.2857 14.3949 19.5269 14.9045 18.5311C15.4134 17.5547 15.6678 17.0471 15.6678 17.0302C15.6864 16.8667 15.5592 16.7764 15.3048 16.7942C14.7952 16.8304 14.3041 17.4097 13.8123 18.5674C13.3942 19.5623 13.1576 20.3945 13.1033 21.0817C13.0304 22.2942 13.267 22.8726 13.8496 22.8001C14.2677 22.7647 14.74 22.4207 15.2497 21.8051C15.6864 21.2807 16.2139 20.4847 16.833 19.4173C17.4521 18.3684 17.888 17.5184 18.1432 16.8852C17.67 19.4721 17.2511 21.4434 16.9237 22.7824C14.6858 23.4148 12.357 24.736 9.8646 26.7445C6.89898 29.1323 5.31567 31.5202 5.13419 33.9081C5.06126 34.957 5.29786 35.753 5.84316 36.3137C6.40711 36.8744 7.13558 37.0919 8.02688 36.9646C10.3192 36.6754 12.6114 34.6315 14.8138 30.9949C15.9782 29.0775 16.9967 26.5092 17.888 23.2714C18.0525 23.2343 18.234 23.1981 18.4163 23.1804C18.7979 23.1441 19.0523 23.1627 19.1982 23.2343C19.3441 23.3254 19.417 23.3608 19.4348 23.3608C19.4891 23.3608 19.5256 23.2891 19.5256 23.1627C19.562 22.6374 19.0888 22.4569 18.1068 22.6197C18.0703 22.6197 18.0338 22.6197 17.9974 22.6374C18.4163 20.9552 18.8166 19.2183 19.1982 17.4274C19.5629 15.9442 19.7257 15.0395 19.7444 14.768ZM14.3219 30.7057C13.5587 32.1526 12.6852 33.4013 11.7388 34.3963C10.538 35.6627 9.37273 36.3862 8.24483 36.5312C7.49855 36.6214 6.91679 36.4402 6.49785 35.9697C6.07977 35.5 5.89828 34.8305 5.97037 33.9798C6.09757 32.4064 6.91679 30.7597 8.42716 29.0598C9.39139 27.9747 10.7381 26.8524 12.4664 25.6956C14.1947 24.537 15.6686 23.7773 16.8873 23.4156C16.2682 26.2377 15.4134 28.6619 14.3219 30.7057ZM42.651 12.4341C42.2872 12.3076 41.9963 12.2537 41.7419 12.2722C41.4688 12.3085 41.1779 12.3987 40.8497 12.5791C39.9949 12.9771 39.1027 13.9366 38.1758 15.456C37.8112 16.053 37.5025 16.6137 37.2837 17.1382C37.1929 17.2284 37.0835 17.3557 36.9563 17.4822C36.4102 18.0606 35.8462 18.3861 35.2458 18.4771C34.9007 18.5311 34.5911 18.4771 34.3181 18.3507C35.1373 16.6314 35.5554 15.2748 35.5732 14.2258C35.5911 13.7601 35.5042 13.2963 35.3187 12.8683C35.0821 12.3801 34.7548 12.1449 34.3367 12.1997C33.6998 12.2722 33.1715 12.6516 32.7169 13.3751C32.2624 14.0994 32.0258 14.8043 31.9893 15.51C31.9893 15.7275 31.9893 15.9442 32.0258 16.1432C31.6798 16.7225 31.4067 17.2646 31.1701 17.7891C29.9328 19.5623 28.8049 20.5387 27.8042 20.666C26.8942 20.7925 26.2947 19.9965 25.8393 19.3085C25.6367 19.004 25.4485 18.6903 25.2753 18.3684C25.1842 18.2017 25.1111 18.0259 25.0574 17.8439C25.0023 17.6989 24.9471 17.5724 24.9471 17.3549C25.1659 17.2832 25.4212 17.2107 25.6027 17.1559C26.7857 16.7764 27.9314 16.053 28.9508 15.2385C29.8242 14.5328 30.6061 13.5926 30.7698 12.4712C30.8428 11.9822 30.5697 11.44 30.1151 11.2402C29.8995 11.1404 29.66 11.103 29.424 11.1322C29.2781 11.1685 29.005 11.295 29.005 11.4948C29.005 11.4577 29.351 11.4577 29.3867 11.4577C29.569 11.4762 29.697 11.5488 29.7691 11.6938C29.9336 12.0184 29.8242 12.4349 29.7149 12.7604C29.5325 13.2849 29.223 13.7368 28.8778 14.1533C28.0773 15.112 27.0223 15.9442 25.8579 16.3962C25.4212 16.5775 24.6571 16.9029 24.2382 16.7756C24.5477 15.6188 25.1116 14.5328 25.6035 13.4661C25.6578 13.3397 25.8215 12.9594 25.8944 12.8144C24.6562 13.7014 23.7107 14.0623 22.4369 13.8641C22.4191 14.5513 23.5648 14.4965 23.9651 14.2435C24.1288 14.1348 23.4741 15.8178 23.4563 15.854C23.0916 16.65 22.7464 17.4645 22.4004 18.2781C21.527 20.3406 21.0902 21.6247 21.0537 22.0952C21.0368 22.2942 21.2361 22.3844 21.6363 22.3304C21.8543 22.2942 22.0731 22.2208 22.2732 22.0944C22.4191 22.0041 22.6006 20.9552 22.6735 20.7562C22.983 19.8153 23.3647 18.1154 24.3289 17.7174C24.384 17.9164 24.4391 18.1331 24.5112 18.3498C24.9844 19.725 25.7485 22.0227 27.459 21.7697C28.0043 21.6972 28.7871 21.1003 29.7878 20.0142C30.1329 19.6348 30.4425 19.2908 30.7334 18.9291C30.6136 19.3542 30.5405 19.791 30.5154 20.2318C30.4789 21.0454 30.7885 21.4072 31.4254 21.2992C32.3167 21.1542 33.208 20.3043 34.1001 18.7663C34.4088 18.9114 34.7361 18.9653 35.1008 18.9114C35.5918 18.8389 36.1015 18.6036 36.629 18.2056C36.7384 18.1331 36.8291 18.0429 36.9199 17.9695C36.7927 18.4046 36.7197 18.8026 36.7019 19.1643C36.6833 19.8153 36.9563 20.0868 37.5203 20.0142C38.4667 19.8701 39.5946 18.5674 40.8497 16.1609C40.541 17.6449 40.3044 18.7486 40.1586 19.4898C37.9392 20.1955 35.6283 21.5159 33.208 23.5421C30.3517 25.9114 28.86 28.2276 28.7684 30.344C28.732 31.285 29.0059 31.9722 29.5876 32.4064C30.1694 32.8406 30.9157 32.9494 31.807 32.7681C34.0814 32.2976 36.3016 30.2892 38.3573 26.9072C39.4674 25.134 40.3952 22.7824 41.1228 19.8701C41.3051 19.8153 41.4874 19.779 41.6689 19.7613C42.0505 19.7073 42.305 19.7073 42.4508 19.779C42.578 19.8515 42.6696 19.8886 42.6883 19.8886C42.7604 19.8701 42.7968 19.8153 42.7968 19.7073C42.7968 19.2368 42.3236 19.1104 41.3594 19.2908C41.3229 19.2908 41.2865 19.3093 41.25 19.3093C41.7054 17.3372 42.0505 15.8717 42.2693 14.8953C42.3787 14.3338 42.4873 13.8641 42.5967 13.4299C42.651 13.3034 42.7604 13.2123 42.924 13.1407C43.0877 13.0682 43.1615 12.9956 43.1785 12.9231C43.1971 12.7419 43.0148 12.5791 42.651 12.4341ZM32.9357 19.7427C32.499 20.268 32.153 20.5572 31.8986 20.5935C31.6255 20.6298 31.4983 20.467 31.5161 20.069C31.5348 19.526 31.8434 18.5851 32.4261 17.2832C32.7169 17.8077 33.1537 18.2419 33.7363 18.5851C33.5904 18.9476 33.3174 19.3271 32.9357 19.7427ZM33.972 18.1508C33.3903 17.7714 32.99 17.2284 32.7712 16.5049C33.1537 15.709 33.5175 15.311 33.8448 15.257C34.0272 15.2385 34.1179 15.1845 34.1179 15.1306C34.1179 15.0943 34.1179 15.0395 34.1001 14.9855V14.8405C33.9729 14.6601 33.7906 14.5876 33.5175 14.6238C33.2266 14.6601 32.9349 14.8768 32.6262 15.2933C32.6262 14.7866 32.7169 14.3161 32.9171 13.8641C33.1715 13.2849 33.4997 12.9771 33.9178 12.9231C34.2087 12.8869 34.4266 13.1761 34.5911 13.7731C34.7005 14.2073 34.7548 14.6238 34.737 15.0581C34.7183 15.8355 34.4639 16.8667 33.972 18.1517V18.1508ZM37.8663 26.7082C37.1565 28.0463 36.3381 29.2226 35.4095 30.1813C34.2638 31.4114 33.0994 32.1526 31.9528 32.4064C31.2252 32.5506 30.6426 32.4426 30.2059 32.0809C29.7691 31.7015 29.5698 31.1399 29.5868 30.3625C29.6419 28.9511 30.3882 27.4131 31.8256 25.7495C32.7534 24.6821 34.0814 23.5783 35.7741 22.4021C37.466 21.2444 38.9213 20.467 40.1221 20.069C39.6489 22.6011 38.8848 24.8077 37.8663 26.7082ZM39.6133 17.6087C38.9577 18.5674 38.4302 19.0927 38.03 19.1458C37.7755 19.182 37.6483 19.0016 37.6653 18.6036C37.684 17.7174 38.2666 16.4687 39.4123 14.9316C40.2137 13.8641 40.9591 13.3034 41.6867 13.2123C41.7648 13.1941 41.8461 13.1941 41.9242 13.2123C41.3051 14.8405 40.5224 16.3237 39.6124 17.6087H39.6133ZM60.9009 13.6828C60.9009 13.5741 60.8645 13.5387 60.8094 13.5387C60.7551 13.5387 60.5363 13.8093 60.1733 14.3346C59.7357 14.967 59.3176 15.4737 58.9174 15.8355C58.3534 16.3962 57.8073 16.7039 57.2976 16.7764C56.6429 16.8667 56.3156 16.5775 56.2969 15.9265C56.2799 15.0032 56.7701 13.6837 57.753 12.0184C57.8259 11.8919 57.8624 11.7832 57.8624 11.7115C57.8624 11.3135 57.6436 11.1499 57.2255 11.1862C57.0588 11.2058 56.9043 11.2827 56.7888 11.4037C56.4428 11.8194 56.1697 12.1095 56.0247 12.3085C55.861 12.4889 55.6973 12.7064 55.515 12.9231C55.0062 13.5387 54.5872 14.0446 54.2955 14.4788C54.0046 14.913 53.8045 15.2022 53.6951 15.3473C53.1498 16.1432 52.6588 16.7216 52.2398 17.0842C51.8031 17.4274 51.4579 17.5901 51.2213 17.5361C50.9669 17.4822 50.8397 17.2284 50.8397 16.7942C50.8211 16.3608 50.9669 15.7452 51.257 14.9855C51.2213 14.8591 51.1297 14.768 51.0025 14.6778C50.8706 14.6014 50.7174 14.5698 50.5658 14.5876C50.4021 14.6053 50.2571 14.6963 50.1112 14.8405C49.9654 14.9855 49.8746 15.2199 49.8204 15.564C49.3836 16.107 48.8553 16.5952 48.2549 17.0842C47.4543 17.7166 46.7267 18.0969 46.0898 18.1871C45.4164 18.2967 45.0891 17.9704 45.0891 17.2107C45.0891 16.9029 45.162 16.5049 45.2892 16.0345C45.9261 15.709 46.6359 15.1306 47.4009 14.3338C48.2557 13.4299 48.6738 12.7064 48.6738 12.1449C48.6703 11.9631 48.599 11.7891 48.4737 11.6567C48.3465 11.5125 48.1828 11.44 48.0005 11.4762C47.0905 11.5842 46.1814 12.2722 45.3079 13.5926C44.4887 14.8228 44.0528 15.9442 44.0528 16.8852C44.0341 18.3321 44.5981 18.983 45.7446 18.8026C46.5452 18.6761 47.4365 18.2233 48.4007 17.4451C48.9096 17.0479 49.3472 16.6314 49.711 16.2157C49.6923 16.6314 49.711 16.9746 49.8017 17.2469C49.9476 17.6626 50.1664 17.9164 50.4751 18.0243C50.7846 18.1331 51.1662 18.0792 51.6216 17.8616C52.0762 17.6626 52.5672 17.2832 53.0591 16.7402C53.5413 16.2004 53.9907 15.6325 54.4049 15.0395C54.951 14.3161 55.515 13.5564 56.0968 12.7427C55.5848 13.6601 55.3272 14.6963 55.3505 15.7452C55.3691 16.9931 55.8966 17.5361 56.9338 17.3911C58.2627 17.2107 59.5364 16.0893 60.7186 14.0808C60.8458 13.9366 60.9009 13.7916 60.9009 13.6828ZM46.3264 13.6651C46.8539 12.7604 47.2542 12.3076 47.5272 12.2722C47.746 12.2537 47.8546 12.3439 47.8546 12.5614C47.8546 12.9956 47.5459 13.5387 46.9455 14.1887C46.4358 14.768 45.9448 15.1837 45.4716 15.456C45.581 15.0395 45.8718 14.4425 46.3264 13.6651ZM72.0358 9.06982C71.3811 9.08837 70.6348 9.52176 69.8165 10.4273C69.2154 11.0731 68.6959 11.7895 68.2696 12.5606C68.4333 12.0007 68.6513 11.3852 68.9243 10.7705C69.216 10.1373 69.4883 9.61283 69.78 9.17859C71.6711 8.05717 73.2909 6.89949 74.6376 5.68784C76.7484 3.76962 77.7304 2.3767 77.6584 1.30924C77.6032 0.693718 77.203 0.350544 76.4033 0.296581C75.657 0.241774 74.892 0.712267 74.3281 1.12795C73.4181 1.79743 72.6727 2.62965 72.0172 3.53438C71.6355 4.05883 71.2709 4.60184 70.9079 5.14484C69.8343 6.80843 68.9243 8.54537 68.1238 10.3725C67.8142 11.0597 67.5233 11.7292 67.3054 12.4526C67.196 12.8321 67.1053 13.1761 67.0323 13.5024C66.9058 13.6115 66.7841 13.726 66.6677 13.8456C66.1588 14.2984 65.5949 14.569 65.0123 14.6238C64.6955 14.6615 64.3744 14.6113 64.0845 14.4788C64.7943 13.0496 65.1403 11.9105 65.1039 11.042C65.0873 10.6335 64.9683 10.2356 64.7579 9.88433C64.4848 9.4678 64.1574 9.25111 63.7394 9.28736C63.1025 9.32278 62.5928 9.63054 62.1739 10.2275C61.7558 10.8245 61.5556 11.4214 61.5734 12.0184C61.5734 12.1997 61.6099 12.381 61.6464 12.5614C60.7729 13.9189 60.3548 15.0943 60.3726 16.0522C60.3913 16.7402 60.7186 17.0471 61.3555 16.9754C62.2468 16.8667 63.1025 16.1618 63.903 14.8953C64.2117 15.0218 64.5577 15.0758 64.9215 15.0395C65.4134 15.0033 65.9044 14.8043 66.4141 14.4973C66.6134 14.3709 66.7957 14.2444 66.9416 14.0994C66.9039 14.3505 66.8916 14.6047 66.9051 14.8582C66.9416 15.7267 67.2867 16.1255 67.9787 16.0707C68.0695 16.0707 68.1059 16.0345 68.1059 15.9628C68.1059 15.8903 68.033 15.8178 67.8872 15.7452C67.8175 15.7053 67.7603 15.647 67.7218 15.5768C67.6834 15.5065 67.6652 15.4271 67.6692 15.3473C67.6327 14.6778 68.0695 13.6103 68.943 12.2174C69.8707 10.7165 70.6162 9.99226 71.2166 9.97455C71.4897 9.97455 71.6355 10.2275 71.672 10.7343C71.7251 11.531 71.5945 12.3292 71.2904 13.0682C70.9444 13.9004 70.5076 14.6415 69.925 15.2933C69.1618 16.1618 68.3604 16.6314 67.542 16.7039C67.3961 16.7225 67.2138 16.7039 66.9959 16.6677C66.8636 16.6421 66.7299 16.6241 66.5956 16.6137C66.4862 16.6314 66.4319 16.6862 66.4319 16.7764C66.4497 17.0117 66.8135 17.1019 67.542 17.0294C68.4876 16.9392 69.4162 16.4872 70.2897 15.6913C71.0041 15.0272 71.5952 14.2432 72.0358 13.3751C72.6718 12.1095 72.9636 11.0235 72.9093 10.0648C72.8728 9.37758 72.5819 9.05212 72.0358 9.06982ZM70.5263 7.40539C71.8357 4.98126 72.9636 3.26287 74.6376 1.99642C75.5289 1.32778 76.2387 1.09254 76.7119 1.12795C77.0028 1.16421 77.1665 1.34549 77.2038 1.65325C77.2208 2.48546 76.3117 3.64314 74.4188 5.25361C72.8364 6.62799 71.4167 7.69545 70.1616 8.40034C70.2159 8.1651 70.3075 7.80337 70.5263 7.40539ZM62.7751 15.5825C62.374 16.0167 62.0289 16.252 61.7744 16.2883C61.5014 16.3245 61.3555 16.1618 61.3555 15.8355C61.3368 15.365 61.5921 14.5876 62.1018 13.4838C62.4291 13.9366 62.8837 14.3161 63.5028 14.6238C63.3755 14.913 63.1381 15.2393 62.7743 15.5825H62.7751ZM63.7207 14.2621C63.1016 13.9181 62.6835 13.4476 62.4291 12.8506C62.7743 12.1997 63.1025 11.8557 63.4298 11.8194C63.6113 11.8017 63.7029 11.7655 63.7029 11.7292C63.7029 11.6929 63.6842 11.6567 63.6664 11.6027V11.4762C63.5392 11.3135 63.3391 11.2587 63.066 11.2773C62.7743 11.295 62.5021 11.4762 62.2103 11.8194C62.1742 11.4053 62.243 10.9887 62.4105 10.6078C62.6293 10.1187 62.9388 9.86578 63.3569 9.84807C63.6478 9.82952 63.8844 10.0833 64.0845 10.5901C64.2304 10.9509 64.3033 11.3135 64.3033 11.6752C64.3398 12.3262 64.1396 13.1761 63.7207 14.2621ZM77.1852 19.8701C76.3659 19.381 75.1286 19.4721 74.2187 19.4721C73.0908 19.4535 71.9629 19.526 70.835 19.58C69.8019 19.6367 68.7706 19.721 67.7421 19.833C61.8503 20.3867 55.9814 21.1593 50.1477 22.1492C47.8368 22.5471 45.5623 23.0716 43.4702 23.9224C44.9984 23.6323 47.4552 23.2343 48.6373 23.0353C51.949 22.4746 55.3691 22.1129 58.7172 21.7149C60.2454 21.5336 61.7922 21.3895 63.3391 21.2807C67.3597 20.9729 71.3811 20.7917 75.4017 20.9013C75.9292 20.9013 78.4403 20.6298 77.1852 19.8701ZM75.7842 20.1593C75.4195 20.177 75.0557 20.1593 74.6919 20.1407C74.4375 20.1407 74.1831 20.1053 73.91 20.0505C74.0007 20.0505 74.2009 20.0142 74.3103 19.9965C74.8556 19.9417 75.1473 19.9063 75.6383 19.924C75.7291 19.924 75.9657 19.9426 76.003 20.0142C76.0573 20.1407 75.8749 20.1593 75.7842 20.1593Z" fill="#624023"/>
<path fill-rule="evenodd" clip-rule="evenodd" d="M77.9859 25.4417C78.0402 25.4417 78.0766 25.4594 78.0953 25.4957C78.1091 25.5206 78.1163 25.5486 78.1163 25.577C78.1163 25.6055 78.1091 25.6335 78.0953 25.6584C77.9469 26.2486 77.6373 26.9704 77.3388 27.6677C77.0513 28.3389 76.7732 28.9881 76.6578 29.4755C76.6578 29.5303 76.6214 29.5665 76.5849 29.6019C76.569 29.6197 76.5493 29.6338 76.5274 29.6432C76.5054 29.6527 76.4816 29.6573 76.4577 29.6567C76.3212 29.6652 76.1889 29.6702 76.0574 29.6745C75.9251 29.6787 75.7928 29.6829 75.6572 29.693C75.602 29.693 75.5656 29.6745 75.5469 29.6382C75.5299 29.6019 75.5113 29.5657 75.53 29.5117C75.6326 29.0412 75.7394 28.4223 75.8514 27.779C75.9752 27.0606 76.1049 26.3136 76.2389 25.7132C76.2581 25.6588 76.2891 25.6093 76.3297 25.5682C76.3661 25.5142 76.4026 25.4957 76.4569 25.4957C76.6027 25.4872 76.9072 25.478 77.2116 25.4687C77.5169 25.4603 77.8222 25.451 77.9672 25.4417H77.9859ZM57.1892 26.2006C57.0366 26.2107 56.8839 26.2259 56.733 26.2394C56.5973 26.252 56.4633 26.2647 56.3344 26.2731C56.2903 26.2731 56.2589 26.2958 56.2208 26.3237C56.2102 26.3315 56.1994 26.3391 56.1885 26.3464C55.6611 26.9186 55.1149 27.4734 54.5509 28.01C54.5145 28.0286 54.4958 28.0648 54.478 28.1188C54.4602 28.1728 54.4602 28.209 54.4602 28.2453C54.4602 28.2638 54.4602 28.2815 54.478 28.3178L54.8054 29.0235C54.8418 29.0775 54.8783 29.1137 54.9326 29.1137C54.969 29.1137 54.9877 29.096 55.0242 29.0598C55.1785 28.9148 55.3337 28.7748 55.488 28.6348C55.6424 28.494 55.7976 28.354 55.9519 28.209C55.7696 29.4755 55.5703 30.6694 55.3693 31.8456C55.3693 31.8996 55.3693 31.9544 55.388 31.9898C55.4058 32.0261 55.4422 32.0446 55.4974 32.0446C55.6424 32.0446 55.7883 32.0396 55.9333 32.0353C56.0791 32.0311 56.225 32.0269 56.37 32.0269C56.4177 32.0246 56.4629 32.0051 56.4972 31.9721C56.5337 31.9359 56.5523 31.8819 56.5702 31.8271C56.8797 30.1272 57.1706 28.3903 57.3707 26.4367C57.3707 26.3819 57.3707 26.3279 57.3342 26.2739C57.2622 26.2191 57.2257 26.2014 57.1892 26.2014V26.2006ZM52.2036 27.7748C52.3672 27.7748 52.5496 27.7571 52.731 27.7385C52.7675 27.7385 52.7862 27.7385 52.8413 27.811C52.8582 27.8296 52.8582 27.8658 52.8582 27.9207C52.702 29.1741 52.508 30.4225 52.2765 31.6644C52.2626 31.697 52.2443 31.7276 52.2222 31.7554C52.212 31.7596 52.2036 31.7647 52.1959 31.7689C52.1747 31.7816 52.1578 31.7908 52.1306 31.7908C52.0306 31.7908 51.9356 31.7959 51.8397 31.8001C51.7448 31.8043 51.6489 31.8085 51.5489 31.8085C51.5124 31.8085 51.4946 31.7917 51.4759 31.7731C51.4581 31.7546 51.4581 31.7192 51.4581 31.6829C51.5667 31.0311 51.6761 30.3616 51.7855 29.693L51.1299 30.7782C51.0757 30.8507 51.0027 30.9047 50.9484 30.9047H50.711C50.6576 30.9047 50.6024 30.8684 50.5838 30.7782C50.4893 30.4141 50.3864 30.0523 50.2751 29.693C50.1689 30.3627 50.0598 31.0319 49.9477 31.7006C49.9338 31.7329 49.9155 31.7633 49.8935 31.7908L49.8672 31.8052C49.8451 31.8178 49.829 31.8271 49.8019 31.8271C49.7111 31.8271 49.6204 31.8321 49.5288 31.8364C49.4381 31.8406 49.3473 31.8448 49.2557 31.8448C49.2201 31.8448 49.2015 31.8279 49.1837 31.8094C49.165 31.7908 49.165 31.7554 49.165 31.7192C49.3651 30.5429 49.5466 29.3852 49.7111 28.1188C49.7111 28.0825 49.729 28.0463 49.7476 28.01C49.7841 27.9738 49.8019 27.9561 49.8384 27.9561C49.9206 27.9476 50.002 27.9426 50.0843 27.9375C50.1657 27.9333 50.248 27.9291 50.3302 27.9207C50.3658 27.9207 50.4023 27.9375 50.421 27.9561C50.4388 27.9738 50.4574 28.01 50.4752 28.0463C50.5812 28.4341 50.6957 28.8136 50.8068 29.1863C50.8679 29.3878 50.9272 29.5859 50.9849 29.7832C51.3487 29.1863 51.6947 28.5707 52.0221 27.9198C52.0297 27.9122 52.0365 27.9021 52.0458 27.8895C52.0601 27.8681 52.0763 27.8481 52.0942 27.8296C52.1306 27.7933 52.1671 27.7748 52.2044 27.7748H52.2036ZM48.1821 28.1011C48.2559 28.1011 48.2924 28.1551 48.3093 28.2453C48.4789 29.3515 48.6155 30.4105 48.7503 31.4519L48.7834 31.7006C48.8012 31.7369 48.7834 31.7731 48.7647 31.8094C48.7469 31.8271 48.7283 31.8456 48.6918 31.8456C48.601 31.8456 48.5103 31.8499 48.4196 31.8541C48.328 31.8591 48.2372 31.8633 48.1465 31.8633C48.0736 31.8633 48.0371 31.8271 48.0193 31.7369C48.0094 31.655 47.9972 31.5735 47.9828 31.4923C47.9693 31.4114 47.9557 31.3296 47.9464 31.2478C47.764 31.2571 47.5817 31.2622 47.4002 31.2664C47.2187 31.2714 47.0364 31.2748 46.8541 31.2849C46.8185 31.3659 46.7777 31.4519 46.7362 31.5379L46.6175 31.7908C46.5818 31.8819 46.5454 31.9173 46.4724 31.9173C46.3707 31.9173 46.2723 31.9224 46.1765 31.9274C46.0857 31.9316 45.9967 31.9359 45.9085 31.9359C45.8898 31.9544 45.872 31.9359 45.8534 31.9181C45.8356 31.8996 45.8356 31.8819 45.8356 31.8456C45.8356 31.8364 45.8398 31.8271 45.844 31.8187C45.8491 31.8094 45.8534 31.8001 45.8534 31.7908C46.3452 30.6694 46.8371 29.5303 47.3095 28.3363C47.3459 28.2267 47.4189 28.1551 47.491 28.1551C47.7098 28.1365 47.9455 28.1188 48.1821 28.1011ZM47.485 29.6989C47.3731 29.9721 47.2628 30.2428 47.1458 30.5067C47.2662 30.4982 47.3917 30.4932 47.5189 30.4881C47.6419 30.4839 47.7666 30.4797 47.8921 30.4713C47.8548 30.1812 47.8191 29.8751 47.7818 29.5699C47.7649 29.4173 47.7462 29.2647 47.7276 29.1146C47.6445 29.3085 47.5647 29.505 47.485 29.6989ZM45.945 28.3178L45.9543 28.3389C45.9645 28.3616 45.9713 28.376 45.9992 28.3895C45.9026 29.0868 45.7991 29.7647 45.6965 30.435C45.6261 30.8954 45.5566 31.3524 45.4896 31.8094C45.4888 31.8429 45.4758 31.8749 45.4531 31.8996C45.4332 31.9185 45.4081 31.9312 45.381 31.9359C45.2894 31.9359 45.1987 31.9401 45.1079 31.9443C45.0172 31.9493 44.9256 31.9536 44.8349 31.9536C44.7984 31.9536 44.7806 31.9359 44.7619 31.9181C44.7441 31.8819 44.7441 31.8633 44.7441 31.8271C44.7713 31.6197 44.8035 31.4114 44.8349 31.2031C44.8671 30.9949 44.8985 30.7875 44.9256 30.5792C44.7713 30.5876 44.6169 30.5927 44.4617 30.5969C44.3074 30.6019 44.153 30.6062 43.9978 30.6154C43.9707 30.8229 43.9385 31.0311 43.9071 31.2394C43.8749 31.4477 43.8435 31.6551 43.8155 31.8633C43.8152 31.897 43.8025 31.9294 43.7799 31.9544C43.7612 31.9713 43.7434 31.9898 43.707 31.9898C43.6162 31.9898 43.5289 31.9949 43.4432 31.9991C43.3567 32.0033 43.2702 32.0075 43.1795 32.0075C43.143 32.0075 43.1244 31.9907 43.1066 31.9721C43.0879 31.9536 43.0879 31.9181 43.0879 31.8819C43.1752 31.3035 43.2575 30.72 43.3398 30.134C43.4118 29.6205 43.4839 29.1053 43.5611 28.5893C43.5611 28.5623 43.5713 28.5463 43.5832 28.5244C43.5882 28.5161 43.593 28.5076 43.5976 28.4991C43.6162 28.4805 43.634 28.4628 43.6705 28.4628C43.8367 28.4628 43.9885 28.4476 44.153 28.4308L44.198 28.4266C44.2345 28.4266 44.2531 28.4443 44.2709 28.4628C44.2887 28.4805 44.2887 28.5168 44.2887 28.553C44.2616 28.7613 44.2294 28.9645 44.198 29.1685C44.1666 29.3709 44.1344 29.575 44.1072 29.7832L45.0537 29.7284C45.0808 29.521 45.113 29.3127 45.1444 29.1045C45.1758 28.897 45.208 28.6888 45.2351 28.4805C45.2351 28.4384 45.2462 28.4173 45.2606 28.3928L45.2716 28.3717C45.2894 28.3363 45.3081 28.3178 45.3445 28.3178C45.526 28.3178 45.7084 28.3001 45.8898 28.2815C45.9085 28.2815 45.9263 28.3001 45.945 28.3178ZM71.0353 26.4729C70.5689 26.5075 70.1024 26.5387 69.6377 26.569C69.1416 26.6019 68.6489 26.634 68.1604 26.6719C68.124 26.6719 68.0875 26.6896 68.051 26.7436C68.0146 26.7831 67.9952 26.8351 67.9967 26.8886C67.8331 28.5168 67.5422 29.9097 67.2505 31.2478C67.2505 31.3026 67.2505 31.3389 67.2691 31.3574C67.2869 31.3928 67.3234 31.3928 67.3599 31.3928C67.8399 31.3844 68.3198 31.3701 68.7973 31.3566C69.2612 31.3431 69.7234 31.3296 70.1796 31.3212C70.2161 31.3212 70.2526 31.3026 70.2899 31.2664C70.32 31.2345 70.3444 31.1977 70.3619 31.1576C70.3891 31.0497 70.412 30.946 70.4349 30.8423V30.8414C70.4578 30.7369 70.4807 30.6331 70.5078 30.5244C70.5078 30.4704 70.5078 30.4342 70.4892 30.4165C70.4713 30.3802 70.4349 30.3616 70.3984 30.3802C70.0804 30.3886 69.7573 30.403 69.4342 30.4165C69.1119 30.4299 68.788 30.4434 68.47 30.4527L68.5514 30.037V30.0353L68.6336 29.6205C68.9245 29.6121 69.2205 29.5977 69.5156 29.5842C69.8124 29.5707 70.1075 29.5573 70.3984 29.548C70.446 29.5459 70.4912 29.5267 70.5256 29.494C70.5603 29.4587 70.5854 29.4152 70.5986 29.3675L70.6528 29.0598L70.708 28.752C70.708 28.6981 70.708 28.6618 70.6893 28.6255C70.6715 28.5893 70.635 28.5707 70.5807 28.5707C70.2805 28.5893 69.9846 28.6028 69.6886 28.6163C69.3935 28.6298 69.0975 28.6433 68.7973 28.6618C68.8516 28.3717 68.9067 28.0648 68.9432 27.7571L70.853 27.6483C70.9005 27.6462 70.9457 27.627 70.9802 27.5943C71.0152 27.5521 71.0401 27.5025 71.0531 27.4493L71.1634 26.6905C71.1634 26.6357 71.1634 26.5808 71.126 26.5454C71.1082 26.4906 71.0718 26.4729 71.0353 26.4729ZM75.993 29.9637C75.848 29.9687 75.7047 29.9729 75.5656 29.9822C75.518 29.9843 75.4728 30.0035 75.4384 30.0362C75.4019 30.0724 75.3654 30.1087 75.3654 30.1627C75.2925 30.4527 75.2204 30.7419 75.1653 31.0134C75.1475 31.0674 75.1653 31.1036 75.1839 31.1222C75.2018 31.1584 75.2382 31.1584 75.2925 31.1584C75.429 31.1584 75.5707 31.1534 75.7114 31.1492C75.8522 31.1441 75.993 31.1399 76.1295 31.1399C76.1534 31.1406 76.1771 31.1361 76.1991 31.1268C76.221 31.1175 76.2407 31.1035 76.2567 31.0859C76.2932 31.0497 76.3297 31.0134 76.3297 30.9595L76.5485 30.091C76.5663 30.0362 76.5485 29.9999 76.5298 29.9645C76.5114 29.9636 76.4932 29.9605 76.4755 29.9552C76.4569 29.9502 76.4391 29.946 76.4212 29.946C76.2771 29.9544 76.1346 29.9594 75.993 29.9637ZM75.4019 27.2866C75.3889 27.3398 75.364 27.3894 75.329 27.4316C75.2999 27.4569 75.2666 27.4769 75.2306 27.4906C75.2204 27.4957 75.2102 27.4991 75.2018 27.5041L74.62 27.5311L74.0374 27.5581C73.783 28.8245 73.5286 29.9637 73.2555 31.0859C73.2368 31.1222 73.219 31.1576 73.1826 31.1939C73.1666 31.2116 73.147 31.2257 73.125 31.2352C73.103 31.2446 73.0793 31.2492 73.0553 31.2487C72.9095 31.2487 72.7636 31.2529 72.6186 31.2571C72.4727 31.2622 72.3269 31.2664 72.1819 31.2664C72.1267 31.2664 72.0903 31.2664 72.0716 31.2301C72.0547 31.2124 72.036 31.1762 72.0546 31.1222C72.3091 30.0176 72.5635 28.8962 72.7823 27.6306L72.2277 27.6576L71.6722 27.6846C71.6179 27.6846 71.5814 27.6669 71.5628 27.6306C71.545 27.5943 71.545 27.5581 71.545 27.5041C71.5628 27.3591 71.5857 27.2141 71.6086 27.0699C71.6315 26.9249 71.6535 26.7798 71.6722 26.6356C71.69 26.5808 71.7086 26.5269 71.7451 26.4906C71.7816 26.4367 71.818 26.4181 71.8723 26.4181L75.4451 26.2023L75.457 26.2014H75.4748C75.5291 26.2014 75.5656 26.2191 75.5842 26.2554C75.6091 26.2995 75.6155 26.3516 75.602 26.4004C75.5698 26.5353 75.5418 26.6677 75.5138 26.7967V26.7975C75.4774 26.9628 75.4426 27.1247 75.4019 27.2866ZM64.1805 26.9788H64.1754C64.1398 26.9788 64.1034 26.9974 64.0669 27.0336C64.0465 27.0569 64.0328 27.0851 64.027 27.1154C64.0228 27.1323 64.0186 27.1475 64.0118 27.1601C63.9863 27.5067 63.9422 27.8448 63.899 28.1728L63.8481 28.5707C63.7574 29.204 63.6301 29.6753 63.4843 29.9999C63.3393 30.3262 63.1756 30.5067 62.9755 30.5615C62.934 30.5672 62.8956 30.5862 62.8659 30.6156C62.8362 30.6449 62.817 30.683 62.8109 30.7242C62.794 30.822 62.7745 30.9207 62.7541 31.021C62.7287 31.1416 62.7032 31.2647 62.6837 31.3928C62.6837 31.4291 62.6837 31.4654 62.7024 31.5025C62.7202 31.5379 62.7567 31.5556 62.7931 31.5379C63.2112 31.5202 63.5394 31.4114 63.776 31.2301C64.0304 31.0497 64.2306 30.7605 64.3942 30.3802C64.5579 29.9822 64.7038 29.4392 64.8123 28.6981C64.8318 28.6011 64.8462 28.4999 64.8607 28.3962C64.8734 28.3051 64.8861 28.2115 64.9031 28.1188L65.4034 28.0918L65.9038 28.0648C65.7489 29.1568 65.5549 30.243 65.322 31.3212C65.322 31.3574 65.322 31.3928 65.3407 31.4291C65.3585 31.4654 65.3949 31.4654 65.4314 31.4654C65.5586 31.4654 65.6858 31.4611 65.813 31.4569C65.9402 31.4519 66.0674 31.4477 66.1955 31.4477C66.232 31.4477 66.2684 31.4291 66.3049 31.3928C66.3414 31.3574 66.3592 31.3212 66.3592 31.2849C66.65 29.946 66.9231 28.5707 67.0868 26.9611C67.0868 26.9072 67.0868 26.8523 67.0503 26.8161C67.0503 26.7798 67.0325 26.7621 66.9782 26.7621L64.1805 26.9788ZM59.8818 25.9839L61.0461 25.9122C61.1191 25.8937 61.1555 25.9476 61.1734 26.0387C61.0152 27.2391 60.8152 28.4338 60.5738 29.6205H60.9011C60.9376 29.6205 60.9732 29.6745 60.9732 29.7107C60.93 30.1272 60.8935 30.3608 60.8095 30.7782C60.8095 30.8144 60.7917 30.8321 60.7553 30.8321H60.3736L60.2091 31.8271C60.1913 31.8819 60.137 31.9359 60.0819 31.9359L59.3 31.9544C59.2271 31.9544 59.1728 31.8996 59.1898 31.8279L59.3356 30.8498L57.771 30.8684C57.7466 30.8673 57.7228 30.861 57.701 30.8501C57.6792 30.8393 57.66 30.8239 57.6446 30.8052C57.6291 30.7864 57.6178 30.7646 57.6114 30.7412C57.605 30.7178 57.6036 30.6934 57.6073 30.6694C57.6582 30.2428 57.6913 30.0379 57.7532 29.7647C57.7663 29.6948 57.791 29.6276 57.8261 29.5657C58.4409 28.6281 58.7539 27.9755 59.1245 27.2048C59.2839 26.8726 59.4544 26.5193 59.6638 26.1112C59.6858 26.073 59.7175 26.0412 59.7558 26.019C59.794 25.9968 59.8375 25.985 59.8818 25.9847V25.9839ZM58.7352 29.693L59.5909 29.6019C59.7206 28.9991 59.7554 28.6137 59.7995 28.1163C59.8131 27.967 59.8275 27.8085 59.8453 27.6306C59.7325 27.8481 59.6358 28.0438 59.5443 28.2293C59.3026 28.7149 59.0965 29.1298 58.7361 29.693H58.7352Z" fill="url(#paint0_linear_302_2918)"/>
</g>
<defs>
<linearGradient id="paint0_linear_302_2918" x1="59.6816" y1="24.7183" x2="59.7713" y2="38.6475" gradientUnits="userSpaceOnUse">
<stop stop-color="#D1815B"/>
<stop offset="1" stop-color="#CE6956"/>
</linearGradient>
<clipPath id="clip0_302_2918">
<rect width="78.8684" height="37" fill="white"/>
</clipPath>
</defs>
</svg>
