<svg width="18" height="18" viewBox="0 0 18 18" fill="none" xmlns="http://www.w3.org/2000/svg">
<path d="M17.3193 12.576C17.7547 13.0126 17.9991 13.6039 17.9991 14.2205C17.9991 14.837 17.7547 15.4284 17.3193 15.865L16.6343 16.6538C10.4812 22.5421 -4.48867 7.57567 1.30983 1.4034L2.1737 0.652151C2.61063 0.228856 3.19663 -0.00538895 3.80493 9.41333e-05C4.41323 0.00557722 4.99491 0.250347 5.42414 0.68145C5.44742 0.703988 6.83864 2.513 6.83864 2.513C7.25024 2.94763 7.47925 3.52371 7.47841 4.12233C7.47758 4.72094 7.24694 5.29638 6.83413 5.72985L5.96425 6.82367C6.44576 7.99339 7.15359 9.05645 8.04708 9.95182C8.94058 10.8472 10.0021 11.5572 11.1708 12.0411L12.2713 11.1659C12.7039 10.752 13.2793 10.5206 13.878 10.5197C14.4767 10.5189 15.0527 10.7487 15.4864 11.1614C15.4864 11.1614 17.2961 12.5535 17.3193 12.576ZM16.2865 13.6683C16.2865 13.6683 14.4888 12.2845 14.4655 12.262C14.3108 12.1085 14.1017 12.0224 13.8837 12.0224C13.6658 12.0224 13.4567 12.1085 13.3019 12.262C13.2817 12.2815 11.7665 13.4895 11.7665 13.4895C11.6644 13.5708 11.5429 13.6241 11.4139 13.6441C11.285 13.6641 11.153 13.6502 11.0311 13.6037C9.51623 13.0401 8.14026 12.1573 6.99646 11.0152C5.85266 9.87316 4.96776 8.4985 4.40176 6.98444C4.35157 6.86083 4.33521 6.72608 4.35436 6.59404C4.3735 6.46201 4.42746 6.33746 4.51068 6.23319C4.51068 6.23319 5.71861 4.72017 5.73889 4.70064C5.89233 4.54587 5.97843 4.33675 5.97843 4.1188C5.97843 3.90085 5.89233 3.69172 5.73889 3.53695C5.71635 3.51442 4.33265 1.71517 4.33265 1.71517C4.17557 1.57432 3.97057 1.49888 3.75967 1.50433C3.54876 1.50978 3.34793 1.59569 3.19834 1.74447L2.33446 2.49572C-1.9038 7.59145 11.0709 19.8473 15.5353 15.6298L16.2203 14.8403C16.3819 14.692 16.4792 14.4866 16.4915 14.2677C16.5038 14.0488 16.4303 13.8338 16.2865 13.6683Z" fill="#7F3614"/>
</svg>
