<svg width="26" height="26" viewBox="0 0 26 26" fill="none" xmlns="http://www.w3.org/2000/svg">
<path d="M22.7501 10.8333H19.1675L14.5666 1.69325C14.2869 1.18072 13.8743 0.752996 13.3722 0.455038C12.8701 0.157081 12.297 -0.000105352 11.7131 2.71733e-06H11.5159C11.0738 -0.000607867 10.6376 0.101689 10.2418 0.298797C9.84605 0.495906 9.50159 0.782417 9.23568 1.13566C8.96978 1.4889 8.78973 1.89918 8.70979 2.33403C8.62985 2.76888 8.65221 3.21637 8.77511 3.64109L10.8638 10.8333H8.28111C7.854 10.8345 7.43092 10.7509 7.03633 10.5874C6.64174 10.424 6.28348 10.1839 5.98227 9.88109L4.44719 8.34167C4.05483 7.94971 3.5478 7.69293 2.99965 7.60858C2.4515 7.52424 1.89074 7.61671 1.39869 7.87259C1.09423 8.02967 0.82511 8.24736 0.607883 8.51228C0.390655 8.7772 0.229908 9.08375 0.135523 9.41309C0.0311347 9.76643 -0.000795286 10.1372 0.041649 10.5032C0.0840933 10.8692 0.200037 11.2228 0.382523 11.5429L2.13102 14.6033C2.6057 15.4316 3.29037 16.1202 4.11602 16.5995C4.94167 17.0788 5.87909 17.3319 6.83377 17.3333H10.854L9.04702 22.1509C8.88526 22.5818 8.83033 23.0455 8.88695 23.5023C8.94356 23.959 9.11004 24.3953 9.37211 24.7736C9.63418 25.152 9.98405 25.4612 10.3918 25.6748C10.7995 25.8884 11.2528 26 11.7131 26C12.2869 26.003 12.851 25.8527 13.3472 25.5645C13.8434 25.2763 14.2535 24.8608 14.5352 24.3609L18.9194 17.3333H22.7501C23.6121 17.3333 24.4387 16.9909 25.0482 16.3814C25.6577 15.7719 26.0001 14.9453 26.0001 14.0833C26.0001 13.2214 25.6577 12.3947 25.0482 11.7852C24.4387 11.1757 23.6121 10.8333 22.7501 10.8333ZM10.8605 3.03875C10.8311 2.93711 10.8258 2.83003 10.8449 2.72597C10.864 2.62191 10.907 2.52371 10.9706 2.43913C11.0341 2.35455 11.1165 2.28591 11.2111 2.23862C11.3058 2.19134 11.4101 2.1667 11.5159 2.16667H11.7131C11.902 2.16504 12.088 2.21339 12.2522 2.3068C12.4163 2.40022 12.5529 2.53538 12.648 2.69859L16.743 10.8333H13.1193L10.8605 3.03875ZM22.7501 15.1667H18.3182C18.1343 15.1668 17.9536 15.2137 17.7928 15.3029C17.6321 15.3922 17.4968 15.5209 17.3995 15.6769L12.6643 23.2689C12.571 23.4398 12.4335 23.5823 12.2661 23.6817C12.0988 23.781 11.9077 23.8334 11.7131 23.8333C11.603 23.8334 11.4945 23.8068 11.3969 23.7557C11.2994 23.7046 11.2157 23.6306 11.153 23.5401C11.0904 23.4495 11.0506 23.3451 11.0372 23.2358C11.0238 23.1264 11.0372 23.0155 11.0761 22.9125L13.4313 16.6292C13.4925 16.4653 13.5131 16.289 13.4914 16.1154C13.4697 15.9418 13.4062 15.776 13.3064 15.6323C13.2067 15.4886 13.0736 15.3711 12.9185 15.29C12.7635 15.209 12.5911 15.1666 12.4162 15.1667H6.83377C6.26165 15.1657 5.69991 15.0138 5.20534 14.7261C4.71077 14.4385 4.30088 14.0255 4.01711 13.5287L2.26319 10.4672C2.22648 10.4019 2.20309 10.33 2.19435 10.2556C2.18561 10.1812 2.1917 10.1058 2.21227 10.0338C2.22313 9.98584 2.24398 9.94068 2.27348 9.90129C2.30297 9.8619 2.34044 9.82918 2.38344 9.80525C2.45021 9.7698 2.52451 9.75086 2.60011 9.75C2.71638 9.75081 2.82781 9.79662 2.91102 9.87784L4.44611 11.4129C4.94862 11.9179 5.54632 12.3182 6.2046 12.5907C6.86289 12.8631 7.56868 13.0022 8.28111 13H22.7501C23.0374 13 23.313 13.1141 23.5161 13.3173C23.7193 13.5205 23.8334 13.796 23.8334 14.0833C23.8334 14.3707 23.7193 14.6462 23.5161 14.8494C23.313 15.0525 23.0374 15.1667 22.7501 15.1667Z" fill="#7F3614"/>
</svg>
