<svg width="126" height="154" viewBox="0 0 126 154" fill="none" xmlns="http://www.w3.org/2000/svg">
<path d="M112.503 51.128L51.2882 6.21133C46.507 2.7103 40.8497 0.601847 34.9434 0.119756C29.0371 -0.362335 23.1127 0.800779 17.8271 3.48013C12.5415 6.15947 8.10128 10.2504 4.99871 15.2992C1.89613 20.348 0.252477 26.1574 0.25 32.0833V121.917C0.251057 127.845 1.8948 133.658 4.99881 138.709C8.10282 143.76 12.5457 147.852 17.8344 150.531C23.123 153.21 29.0506 154.372 34.9593 153.887C40.868 153.401 46.5267 151.288 51.3074 147.782L112.522 102.866C116.586 99.8857 119.89 95.9905 122.168 91.4956C124.446 87.0008 125.633 82.0326 125.633 76.9936C125.633 71.9546 124.446 66.9864 122.168 62.4915C119.89 57.9967 116.586 54.1015 112.522 51.1216L112.503 51.128ZM104.906 92.5155L43.6908 137.432C40.8227 139.528 37.4305 140.789 33.8898 141.077C30.3491 141.364 26.798 140.666 23.6296 139.06C20.4611 137.453 17.7988 135.002 15.9375 131.976C14.0761 128.951 13.0883 125.469 13.0833 121.917V32.0833C13.0477 28.5243 14.0169 25.0275 15.8796 21.9946C17.7422 18.9617 20.4227 16.5158 23.6131 14.938C26.3266 13.5577 29.3274 12.8367 32.3718 12.8333C36.4521 12.8489 40.4197 14.1737 43.6908 16.6127L104.906 61.5294C107.341 63.3177 109.321 65.6541 110.686 68.3495C112.05 71.0449 112.761 74.0237 112.761 77.0449C112.761 80.0661 112.05 83.0449 110.686 85.7403C109.321 88.4358 107.341 90.7721 104.906 92.5604V92.5155Z" fill="white"/>
</svg>
