<svg width="20" height="26" viewBox="0 0 20 26" fill="none" xmlns="http://www.w3.org/2000/svg">
<path d="M14.3333 0H14.1925C13.7077 0.00460613 13.2381 0.170098 12.8575 0.470491C12.4769 0.770884 12.2069 1.18917 12.0897 1.65967C11.9643 2.11774 11.6919 2.52192 11.3143 2.81001C10.9367 3.0981 10.4749 3.25415 10 3.25415C9.52506 3.25415 9.06328 3.0981 8.68571 2.81001C8.30813 2.52192 8.03567 2.11774 7.91025 1.65967C7.79314 1.18917 7.52309 0.770884 7.1425 0.470491C6.76191 0.170098 6.29233 0.00460613 5.8075 0L5.66667 0C4.2306 0.00172018 2.85385 0.572955 1.8384 1.5884C0.822955 2.60385 0.25172 3.9806 0.25 5.41667V22.75C0.25 23.6119 0.59241 24.4386 1.2019 25.0481C1.8114 25.6576 2.63805 26 3.5 26H5.8075C6.29233 25.9954 6.76191 25.8299 7.1425 25.5295C7.52309 25.2291 7.79314 24.8108 7.91025 24.3403C8.03567 23.8823 8.30813 23.4781 8.68571 23.19C9.06328 22.9019 9.52506 22.7458 10 22.7458C10.4749 22.7458 10.9367 22.9019 11.3143 23.19C11.6919 23.4781 11.9643 23.8823 12.0897 24.3403C12.2069 24.8108 12.4769 25.2291 12.8575 25.5295C13.2381 25.8299 13.7077 25.9954 14.1925 26H16.5C17.3619 26 18.1886 25.6576 18.7981 25.0481C19.4076 24.4386 19.75 23.6119 19.75 22.75V5.41667C19.7483 3.9806 19.177 2.60385 18.1616 1.5884C17.1461 0.572955 15.7694 0.00172018 14.3333 0V0ZM16.5 23.8333L14.1784 23.7651C13.924 22.8458 13.3733 22.0361 12.6118 21.4617C11.8503 20.8872 10.9206 20.5801 9.96677 20.5878C9.01294 20.5956 8.08833 20.9179 7.33632 21.5047C6.58431 22.0915 6.04692 22.91 5.8075 23.8333H3.5C3.21268 23.8333 2.93713 23.7192 2.73397 23.516C2.5308 23.3129 2.41667 23.0373 2.41667 22.75V18.4167H4.58333C4.87065 18.4167 5.1462 18.3025 5.34936 18.0994C5.55253 17.8962 5.66667 17.6206 5.66667 17.3333C5.66667 17.046 5.55253 16.7705 5.34936 16.5673C5.1462 16.3641 4.87065 16.25 4.58333 16.25H2.41667V5.41667C2.41667 4.55471 2.75908 3.72806 3.36857 3.11857C3.97806 2.50908 4.80471 2.16667 5.66667 2.16667L5.82158 2.23492C6.07533 3.14863 6.62108 3.95421 7.37553 4.52871C8.12999 5.10321 9.05171 5.41506 10 5.41667C10.9611 5.40849 11.8932 5.08658 12.6545 4.49991C13.4158 3.91324 13.9646 3.09394 14.2174 2.16667H14.3333C15.1953 2.16667 16.0219 2.50908 16.6314 3.11857C17.2409 3.72806 17.5833 4.55471 17.5833 5.41667V16.25H15.4167C15.1293 16.25 14.8538 16.3641 14.6506 16.5673C14.4475 16.7705 14.3333 17.046 14.3333 17.3333C14.3333 17.6206 14.4475 17.8962 14.6506 18.0994C14.8538 18.3025 15.1293 18.4167 15.4167 18.4167H17.5833V22.75C17.5833 23.0373 17.4692 23.3129 17.266 23.516C17.0629 23.7192 16.7873 23.8333 16.5 23.8333Z" fill="#7F3614"/>
</svg>
