<svg width="17" height="12" viewBox="0 0 17 12" fill="none" xmlns="http://www.w3.org/2000/svg">
<path d="M15.5192 3.68007L11.9975 0.258824C11.9129 0.176811 11.8122 0.111716 11.7013 0.0672934C11.5904 0.0228708 11.4715 0 11.3514 0C11.2312 0 11.1123 0.0228708 11.0014 0.0672934C10.8905 0.111716 10.7899 0.176811 10.7053 0.258824C10.5358 0.422766 10.4406 0.644536 10.4406 0.875699C10.4406 1.10686 10.5358 1.32863 10.7053 1.49257L13.9449 4.63382H1.62997C1.38862 4.63382 1.15716 4.72601 0.986504 4.89011C0.815846 5.0542 0.719971 5.27676 0.719971 5.50882C0.719971 5.74089 0.815846 5.96345 0.986504 6.12754C1.15716 6.29164 1.38862 6.38382 1.62997 6.38382H13.9995L10.7053 9.54257C10.62 9.62392 10.5523 9.72069 10.5061 9.82732C10.4599 9.93395 10.4361 10.0483 10.4361 10.1638C10.4361 10.2793 10.4599 10.3937 10.5061 10.5003C10.5523 10.607 10.62 10.7037 10.7053 10.7851C10.7899 10.8671 10.8905 10.9322 11.0014 10.9766C11.1123 11.021 11.2312 11.0439 11.3514 11.0439C11.4715 11.0439 11.5904 11.021 11.7013 10.9766C11.8122 10.9322 11.9129 10.8671 11.9975 10.7851L15.5192 7.39007C16.0304 6.89789 16.3176 6.2307 16.3176 5.53507C16.3176 4.83945 16.0304 4.17226 15.5192 3.68007Z" fill="white"/>
</svg>
