<svg width="26" height="26" viewBox="0 0 26 26" fill="none" xmlns="http://www.w3.org/2000/svg">
<path d="M25.0456 0.955525C24.6572 0.562413 24.174 0.276118 23.6426 0.124301C23.1113 -0.0275157 22.5497 -0.0397231 22.0123 0.0888586L4.67895 3.73969C3.68074 3.87659 2.74058 4.28946 1.96433 4.93181C1.18809 5.57415 0.606604 6.42046 0.285354 7.37543C-0.0358954 8.33039 -0.0841466 9.35608 0.146035 10.337C0.376216 11.3179 0.875686 12.2151 1.5882 12.9274L3.44937 14.7875C3.5501 14.8882 3.62998 15.0078 3.68445 15.1394C3.73892 15.271 3.76689 15.4121 3.76678 15.5545V18.9865C3.76917 19.4691 3.88026 19.9449 4.09178 20.3786L4.08312 20.3862L4.11128 20.4144C4.42871 21.0526 4.94716 21.5687 5.58678 21.8834L5.61495 21.9115L5.62253 21.9029C6.05626 22.1144 6.53207 22.2255 7.01462 22.2279H10.4466C10.7338 22.2276 11.0092 22.3414 11.2125 22.5442L13.0726 24.4043C13.5715 24.9087 14.1653 25.3094 14.8198 25.5833C15.4743 25.8571 16.1765 25.9988 16.886 26C17.4772 25.9993 18.0644 25.9027 18.6247 25.714C19.5709 25.4033 20.4115 24.8344 21.0516 24.0714C21.6917 23.3084 22.1059 22.3817 22.2474 21.3959L25.9036 4.02461C26.0389 3.48255 26.0309 2.91465 25.8805 2.3766C25.7301 1.83856 25.4424 1.34885 25.0456 0.955525ZM4.98337 13.2579L3.12112 11.3978C2.68748 10.9746 2.38355 10.4365 2.24501 9.84661C2.10647 9.25675 2.13905 8.6396 2.33895 8.06761C2.53275 7.48079 2.89102 6.96199 3.37115 6.57289C3.85127 6.1838 4.43305 5.94079 5.04728 5.87277L22.2084 2.25986L5.93128 18.5391V15.5545C5.93292 15.1281 5.84999 14.7055 5.68728 14.3113C5.52458 13.9171 5.28533 13.559 4.98337 13.2579ZM20.1186 21.0254C20.0354 21.6237 19.7871 22.1871 19.4016 22.6521C19.016 23.1172 18.5084 23.4656 17.9358 23.6582C17.3633 23.8509 16.7483 23.8801 16.16 23.7426C15.5718 23.6052 15.0335 23.3064 14.6055 22.88L12.7422 21.0167C12.4414 20.7143 12.0837 20.4745 11.6897 20.3112C11.2956 20.148 10.8731 20.0644 10.4466 20.0655H7.46203L23.7413 3.79169L20.1186 21.0254Z" fill="#7F3614"/>
</svg>
